<svg width="75" height="45" viewBox="0 0 75 45" fill="none" xmlns="http://www.w3.org/2000/svg">
<path d="M21.0364 10.166C21.0364 11.565 20.7614 12.8931 20.2115 14.1502C19.671 15.3979 18.9313 16.4755 17.9926 17.3829C17.0539 18.2809 15.9302 18.9946 14.6217 19.5239C13.3226 20.0532 11.9477 20.3179 10.4969 20.3179C9.04608 20.3179 7.67115 20.0532 6.37208 19.5239C5.0825 18.9946 3.96833 18.2809 3.02958 17.3829C2.10032 16.4755 1.36071 15.3979 0.810734 14.1502C0.270245 12.8931 0 11.565 0 10.166C0 8.76709 0.270245 7.43903 0.810734 6.18186C1.36071 4.9247 2.10032 3.84712 3.02958 2.94915C3.96833 2.04172 5.0825 1.32333 6.37208 0.794001C7.67115 0.264667 9.04608 0 10.4969 0C12.4407 0 14.2187 0.448989 15.8306 1.34697C17.4426 2.24494 18.7133 3.47375 19.6425 5.0334C20.5718 6.58359 21.0364 8.29447 21.0364 10.166ZM18.206 14.6039C18.9835 13.2617 19.3723 11.7824 19.3723 10.166C19.3723 8.54969 18.9835 7.07039 18.206 5.72815C17.4379 4.38591 16.3759 3.33197 15.0199 2.56632C13.6734 1.80068 12.1847 1.41786 10.5538 1.41786C9.33055 1.41786 8.16897 1.64472 7.06903 2.09843C5.96909 2.55215 5.0256 3.16655 4.23857 3.94165C3.45155 4.71674 2.82572 5.6478 2.36108 6.73483C1.89645 7.8124 1.66414 8.95614 1.66414 10.166C1.66414 11.7824 2.05291 13.2617 2.83046 14.6039C3.61749 15.9367 4.68898 16.9859 6.04495 17.7516C7.41039 18.5172 8.91333 18.9001 10.5538 18.9001C12.1847 18.9001 13.6734 18.5172 15.0199 17.7516C16.3759 16.9859 17.4379 15.9367 18.206 14.6039Z" fill="white"/>
<path d="M25.7017 7.0184V9.28697H25.7586C26.3654 8.37009 26.996 7.7226 27.6503 7.34451C28.3141 6.95696 29.12 6.76319 30.0683 6.76319C31.5191 6.76319 32.6901 7.22635 33.5815 8.15269C34.4823 9.07902 34.9327 10.3976 34.9327 12.1085V20.0627H33.5388V12.6331C33.5388 11.168 33.2353 10.0526 32.6285 9.28697C32.0216 8.51188 31.1398 8.12433 29.9829 8.12433C29.0537 8.12433 28.2572 8.35119 27.5934 8.8049C26.9296 9.24917 26.2991 9.95337 25.7017 10.9175V20.0627H24.3078V7.0184H25.7017Z" fill="white"/>
<path d="M40.2238 0.255215V20.0627H38.8157V0.255215H40.2238Z" fill="white"/>
<path d="M45.714 7.0184V20.0627H44.3059V7.0184H45.714ZM45.714 0.255215V2.63722H44.3059V0.255215H45.714Z" fill="white"/>
<path d="M50.9624 7.0184V9.28697H51.0193C51.6262 8.37009 52.2568 7.7226 52.9111 7.34451C53.5748 6.95696 54.3808 6.76319 55.329 6.76319C56.7798 6.76319 57.9509 7.22635 58.8422 8.15269C59.743 9.07902 60.1934 10.3976 60.1934 12.1085V20.0627H58.7995V12.6331C58.7995 11.168 58.4961 10.0526 57.8892 9.28697C57.2824 8.51188 56.4005 8.12433 55.2437 8.12433C54.3144 8.12433 53.5179 8.35119 52.8542 8.8049C52.1904 9.24917 51.5598 9.95337 50.9624 10.9175V20.0627H49.5686V7.0184H50.9624Z" fill="white"/>
<path d="M75 13.0585H64.688C64.5553 14.1361 64.7212 15.1333 65.1858 16.0502C65.6505 16.967 66.3048 17.6807 67.1487 18.1911C68.0021 18.7016 68.9219 18.9568 69.908 18.9568C70.7804 18.9568 71.5959 18.8055 72.3544 18.5031C73.113 18.1911 73.919 17.6949 74.7724 17.0143V18.5881C73.2742 19.7413 71.5959 20.3179 69.7373 20.3179C67.8409 20.3179 66.2763 19.6657 65.0436 18.3613C63.8204 17.0568 63.2088 15.3979 63.2088 13.3846C63.2088 11.4658 63.773 9.88248 64.9014 8.63476C66.0393 7.38704 67.4758 6.76319 69.2111 6.76319C69.9317 6.76319 70.6287 6.89079 71.3019 7.14601C71.9752 7.40122 72.5915 7.77459 73.151 8.26612C73.7104 8.75764 74.1561 9.41931 74.488 10.2511C74.8293 11.0735 75 12.0093 75 13.0585ZM64.8729 11.9384H73.3501C72.857 9.39568 71.4773 8.12433 69.2111 8.12433C68.1206 8.12433 67.1866 8.46462 66.4091 9.14519C65.6315 9.82576 65.1195 10.7568 64.8729 11.9384Z" fill="white"/>
<path d="M0.853404 24.9373H4.99241C6.02598 24.9373 6.94102 25.046 7.73753 25.2634C8.53404 25.4714 9.16935 25.7408 9.64347 26.0716C10.1176 26.4024 10.5064 26.7994 10.8098 27.2626C11.1227 27.7258 11.3313 28.1842 11.4356 28.6379C11.5494 29.0822 11.6063 29.5548 11.6063 30.0558C11.6063 31.0388 11.374 31.8848 10.9093 32.5937C10.4447 33.3027 9.72407 33.9265 8.74739 34.4653C10.2551 34.7867 11.3977 35.3727 12.1752 36.2235C12.9528 37.0742 13.3416 38.1612 13.3416 39.4845C13.3416 41.1009 12.7394 42.3817 11.5352 43.3269C10.3309 44.2722 8.70946 44.7448 6.67078 44.7448H0.853404V24.9373ZM2.38953 26.2134V34.1108H4.52304C8.13579 34.1108 9.94216 32.797 9.94216 30.1692C9.94216 27.532 8.11682 26.2134 4.46615 26.2134H2.38953ZM2.38953 35.4011V43.4687H6.50009C7.28712 43.4687 7.98881 43.3884 8.60516 43.2277C9.23099 43.0575 9.73355 42.8401 10.1128 42.5755C10.4921 42.3108 10.8003 41.9989 11.0374 41.6397C11.2839 41.2805 11.4546 40.926 11.5494 40.5763C11.6442 40.2171 11.6916 39.8437 11.6916 39.4562C11.6916 39.0308 11.6442 38.6385 11.5494 38.2794C11.4546 37.9202 11.2744 37.561 11.0089 37.2018C10.7434 36.8331 10.3973 36.5212 9.9706 36.266C9.55338 36.0108 8.98919 35.8028 8.27802 35.6421C7.57633 35.4814 6.76086 35.4011 5.83159 35.4011H2.38953Z" fill="white"/>
<path d="M28.5321 38.2368C28.5321 40.1651 27.9016 41.7767 26.6404 43.0717C25.3793 44.3572 23.7958 45 21.8898 45C19.9839 45 18.3956 44.3572 17.125 43.0717C15.8544 41.7767 15.219 40.1651 15.219 38.2368C15.219 36.2991 15.8544 34.6827 17.125 33.3877C18.3956 32.0928 19.9839 31.4453 21.8898 31.4453C23.7958 31.4453 25.3793 32.0928 26.6404 33.3877C27.9016 34.6733 28.5321 36.2896 28.5321 38.2368ZM25.5737 42.1076C26.5598 41.0773 27.0529 39.787 27.0529 38.2368C27.0529 36.6866 26.5598 35.3964 25.5737 34.3661C24.5875 33.3263 23.3596 32.8064 21.8898 32.8064C20.4011 32.8064 19.1637 33.3216 18.1775 34.3519C17.1914 35.3822 16.6983 36.6772 16.6983 38.2368C16.6983 39.787 17.1914 41.0773 18.1775 42.1076C19.1637 43.1284 20.4011 43.6389 21.8898 43.6389C23.369 43.6389 24.597 43.1284 25.5737 42.1076Z" fill="white"/>
<path d="M44.3201 38.2368C44.3201 40.1651 43.6895 41.7767 42.4284 43.0717C41.1673 44.3572 39.5837 45 37.6778 45C35.7719 45 34.1836 44.3572 32.913 43.0717C31.6423 41.7767 31.007 40.1651 31.007 38.2368C31.007 36.2991 31.6423 34.6827 32.913 33.3877C34.1836 32.0928 35.7719 31.4453 37.6778 31.4453C39.5837 31.4453 41.1673 32.0928 42.4284 33.3877C43.6895 34.6733 44.3201 36.2896 44.3201 38.2368ZM41.3617 42.1076C42.3478 41.0773 42.8409 39.787 42.8409 38.2368C42.8409 36.6866 42.3478 35.3964 41.3617 34.3661C40.3755 33.3263 39.1475 32.8064 37.6778 32.8064C36.1891 32.8064 34.9516 33.3216 33.9655 34.3519C32.9793 35.3822 32.4862 36.6772 32.4862 38.2368C32.4862 39.787 32.9793 41.0773 33.9655 42.1076C34.9516 43.1284 36.1891 43.6389 37.6778 43.6389C39.157 43.6389 40.385 43.1284 41.3617 42.1076Z" fill="white"/>
<path d="M48.6867 24.9373V44.7448H47.2928V24.9373H48.6867ZM57.9461 31.7005L50.7918 37.8965L59.0556 44.7448H57.1354L48.8858 37.8965L56.1113 31.7005H57.9461Z" fill="white"/>
</svg>
