<svg width="30" height="30" viewBox="0 0 30 30" fill="none" xmlns="http://www.w3.org/2000/svg">
<g clip-path="url(#clip0_87_590)">
<circle cx="15" cy="15" r="13" fill="#485FB0"/>
<circle cx="15" cy="11" r="7" fill="#8190C5"/>
<path d="M25.4967 22.4163C25.2511 20.6864 24.7628 19.2494 24.0318 18.1055C23.3008 16.9615 22.2712 16.3002 20.9431 16.1217C20.1953 16.9475 19.3052 17.5921 18.2729 18.0552C17.2405 18.5184 16.1496 18.75 15 18.75C13.8504 18.75 12.7595 18.5184 11.7271 18.0552C10.6948 17.5921 9.80469 16.9475 9.05692 16.1217C7.72879 16.3002 6.69922 16.9615 5.96819 18.1055C5.23716 19.2494 4.74888 20.6864 4.50335 22.4163C5.68638 24.0904 7.19866 25.4157 9.04018 26.3923C10.8817 27.3689 12.8683 27.8571 15 27.8571C17.1317 27.8571 19.1183 27.3689 20.9598 26.3923C22.8013 25.4157 24.3136 24.0904 25.4967 22.4163ZM21.4286 10.7143C21.4286 8.93973 20.8008 7.42466 19.5452 6.16908C18.2896 4.9135 16.7746 4.28571 15 4.28571C13.2254 4.28571 11.7104 4.9135 10.4548 6.16908C9.19922 7.42466 8.57143 8.93973 8.57143 10.7143C8.57143 12.4888 9.19922 14.0039 10.4548 15.2595C11.7104 16.5151 13.2254 17.1429 15 17.1429C16.7746 17.1429 18.2896 16.5151 19.5452 15.2595C20.8008 14.0039 21.4286 12.4888 21.4286 10.7143ZM30 15C30 17.0312 29.6038 18.9704 28.8114 20.8175C28.019 22.6646 26.9559 24.2606 25.6222 25.6055C24.2885 26.9503 22.6953 28.019 20.8426 28.8114C18.99 29.6038 17.0424 30 15 30C12.9687 30 11.0268 29.6038 9.17411 28.8114C7.32143 28.019 5.72545 26.9531 4.38616 25.6138C3.04687 24.2746 1.98103 22.6786 1.18862 20.8259C0.396205 18.9732 0 17.0312 0 15C0 12.9687 0.396205 11.0268 1.18862 9.17411C1.98103 7.32143 3.04687 5.72545 4.38616 4.38616C5.72545 3.04687 7.32143 1.98103 9.17411 1.18862C11.0268 0.396205 12.9687 0 15 0C17.0312 0 18.9732 0.396205 20.8259 1.18862C22.6786 1.98103 24.2746 3.04687 25.6138 4.38616C26.9531 5.72545 28.019 7.32143 28.8114 9.17411C29.6038 11.0268 30 12.9687 30 15Z" fill="#F8F9FA"/>
</g>
<defs>
<clipPath id="clip0_87_590">
<rect width="30" height="30" fill="white"/>
</clipPath>
</defs>
</svg>
